<svg width="1171" height="1205" viewBox="0 0 1171 1205" fill="none" xmlns="http://www.w3.org/2000/svg">
<path fill-rule="evenodd" clip-rule="evenodd" d="M646.159 442.696C699.815 438.854 773.379 449.49 788.898 510.669C793.711 532.932 803.194 542.703 819.126 557.263C920.254 686.699 567.417 708.455 549.279 582.238C511.067 596.155 469.471 599.102 431.236 613.169C410.499 620.829 391.695 632.917 373.676 645.555C300.197 697.743 227.758 751.422 154.541 803.985C182.874 817.032 236.742 866.846 214.792 900.32C209.678 906.84 202.088 911.335 195.374 916.101L191.834 918.629C184.217 924.087 171.396 933.39 164.306 938.446L162.998 939.398C162.485 939.769 161.907 940.186 161.385 940.559C212.515 1015.31 272.354 1084.29 338.73 1145.87C344.382 1151.12 342.067 1162.87 333.887 1164.24L324.141 1165.67C292.675 1170.25 260.61 1174.38 228.901 1171.89C198.018 1168.53 179.408 1141.19 158.296 1121.39C116.137 1078.3 76.8916 1032.33 41.1456 983.772L40.4013 982.747C29.2761 967.544 14.5094 952.007 13.4286 932.376C11.4576 926.474 16.6446 918.016 21.6286 913.992L23.3302 911.537C50.0616 873.092 80.3151 836.016 118.219 808.175C118.078 804.026 119.996 799.665 123.794 796.916L282.202 682.28V682.28C323.074 654.153 361.063 621.097 405.365 598.383C450.665 576.573 501.786 575.715 548.209 557.513C549.193 544.393 576.776 541.044 575.905 543.07C605.008 525.504 619.99 504.603 624.611 485.394C629.231 466.185 623.489 448.667 646.159 442.696ZM1037.89 854.266C1086.87 780.565 1133.56 862.109 1153.95 911.256C1178.05 978.515 1128.15 1061.25 1095.92 1119.23C1084.05 1135.33 1068.43 1169.3 1047.51 1171.76C994.787 1171.54 941.994 1167.83 889.242 1166.73C855.18 1158.28 902.97 1107.09 935.982 1125.79C945.984 1129.53 950.981 1140.88 960.734 1144.53C964.288 1145.28 964.533 1143.7 965.978 1140.16L966.183 1139.67C968.76 1133.54 971.259 1127.39 973.797 1121.25C995.274 1068.36 1017.98 1015.93 1040.56 963.533C1045.38 952.156 1038.61 942.783 1029.82 936.011C1023.09 930.47 994.145 916.94 1021.42 922.895C1010.91 898.522 1023.53 873.783 1037.89 854.266ZM916.28 753.376C920.996 752.787 927.053 757.54 927.779 762.144C933.795 800.31 927.093 838.043 919.057 875.376L917.578 882.213C914.615 895.829 911.303 909.714 903.911 921.649C896.368 933.829 884.957 943.009 871.857 948.589C829.832 965.336 777.568 948.775 746.653 917.465C726.875 890.375 744.262 856.343 747.581 826.652C744.444 818.651 743.288 809.397 741.473 801.148L741.252 800.163L734.203 769.391C732.649 762.604 737.595 753.316 745.723 754.248C802.395 760.748 859.677 760.456 916.28 753.376Z" fill="white"/>
<path fill-rule="evenodd" clip-rule="evenodd" d="M1114.2 844.624C1114.03 843.865 1114.94 843.284 1115.53 843.855C1125.5 853.464 1132.54 865.744 1140.27 877.124C1147.63 887.964 1155.64 898.384 1161.13 910.345C1166.23 921.464 1169.52 932.744 1170.5 944.964C1171.48 957.095 1170.21 969.255 1168.07 981.204C1163.86 1004.74 1154.86 1027.03 1144.98 1048.68C1135.37 1069.73 1124.52 1090.18 1113.06 1110.26L1108.95 1117.42C1103.94 1126.15 1098.87 1134.86 1093.45 1143.31C1086.7 1153.83 1080.54 1164.69 1071.64 1173.47C1065.32 1179.72 1053.41 1173.47 1056.29 1164.54C1057.54 1160.65 1058.52 1156.99 1060.46 1153.38C1061.93 1150.63 1063.59 1147.96 1065.15 1145.25C1068.27 1139.83 1071.36 1134.39 1074.48 1128.97C1081.03 1117.58 1087.93 1106.4 1094.42 1094.97C1105.68 1075.15 1116.31 1054.96 1125.71 1034.18L1126.82 1031.73C1135.47 1012.49 1143.66 992.559 1147.46 971.744C1151.46 949.815 1147.88 929.145 1140.09 908.534C1136.06 897.874 1131.53 887.454 1126.82 877.074L1125.91 875.091C1121.37 865.184 1116.54 855.33 1114.2 844.624ZM630.05 465.303C630.14 464.914 630.8 464.884 630.86 465.303C633.66 483.925 627.43 503.624 617.28 519.114C611.74 527.574 604.91 535.214 596.86 541.354L596.233 541.827C588.01 547.975 576.898 553.912 566.69 549.925C566.37 549.803 566.07 549.664 565.79 549.505C566.94 551.284 568 553.154 569.08 555.024C572.29 560.594 575.17 566.364 578.3 571.984C583.9 582.034 590.57 591.024 599 598.894C632.709 630.357 680.042 637.835 724.494 637.477L727.634 637.448C747.16 637.31 772.696 638.307 787.77 624.175C795.87 616.585 800.33 605.794 804.36 595.664C808.32 585.734 811.03 575.484 814.32 565.384C807.45 560.675 801.15 554.925 796.2 548.204C791.04 541.204 787.14 533.324 784.89 524.914L784.558 523.658C782.818 516.951 781.069 508.08 783.87 501.744C784.19 501.014 785.39 501.064 785.73 501.744C787.24 504.774 787.53 508.194 788.46 511.434C789.54 515.204 790.76 518.954 792.37 522.524C795.48 529.444 799.59 536.024 804.52 541.784C808.59 546.553 813 550.934 818.04 554.614C821.01 549.484 827.9 548.794 833.67 550.484C841.404 552.743 849.033 555.644 856.491 558.709L857.98 559.324C865.35 562.384 873.68 565.194 880.58 569.364C884.77 571.364 888.79 573.374 892.57 575.154C911.405 584.002 929.961 593.39 948.433 602.961L952.39 605.014C960.13 609.044 967.8 613.114 974.53 618.734C981.38 624.454 986.7 632.274 991.7 639.604C1003.13 656.364 1013.9 673.604 1025.2 690.454C1048.02 724.454 1070.84 758.454 1093.79 792.374C1099.34 800.585 1105.6 808.594 1110.58 817.154C1115.35 825.335 1115.22 833.734 1114.29 842.864L1114.12 844.541C1112.33 861.288 1109.27 877.373 1099.87 891.734C1085.08 914.314 1061.78 928.374 1037.13 938.053C1040.14 940.294 1042.97 942.714 1046.56 944.255C1052.08 946.614 1057.97 947.835 1063.94 948.324C1070.31 948.835 1077.49 947.244 1082.65 951.574C1084.72 953.303 1084.78 957.464 1082.65 959.194C1077.69 963.243 1071.28 962.083 1065.23 961.404L1064.87 961.364C1059.26 960.744 1053.73 959.704 1048.46 957.644C1047.16 957.133 1045.87 956.564 1044.62 955.934C1044.66 956.044 1044.68 956.175 1044.66 956.314C1043.76 963.204 1041.81 969.718 1039.75 976.302L1038.44 980.474C1035.78 988.994 1033.1 997.494 1030.34 1005.99C1025.09 1022.18 1019.37 1038.2 1013.63 1054.21L1008.67 1068.03C1003.58 1082.2 998.426 1096.35 992.73 1110.28C989.21 1118.88 985.67 1127.48 982.14 1136.07C978.69 1144.46 975.82 1153.52 971.54 1161.51C968.02 1168.09 958.42 1163.38 959.96 1156.62C961.98 1147.76 965.79 1138.95 968.7 1130.32C971.66 1121.56 974.56 1112.79 977.57 1104.05C982.805 1088.87 988.603 1073.89 994.43 1058.92L1000.21 1044.08C1005.87 1029.55 1011.6 1015.02 1017.73 1000.68L1018.4 999.102C1024.76 984.093 1031.34 967.216 1042.9 955.585C1043.05 955.425 1043.26 955.344 1043.47 955.324C1040.63 953.784 1037.97 951.914 1035.63 949.704L1035.52 949.589C1034.59 948.61 1030.77 943.784 1029.54 940.894C1027.94 941.464 1026.34 942.014 1024.74 942.553C1021.95 943.494 1019.64 942.814 1018.01 941.324L1014.91 943.245C1011.59 945.272 1008.02 947.196 1004.35 947.294C999.73 947.414 996.1 944.864 993.63 941.104C991.41 937.744 990.09 934.114 987.28 931.104C984.517 928.145 981.319 925.648 978.051 923.264L974.199 920.462C967.135 915.305 960.287 910.095 954.6 903.284C951.74 899.844 947.91 895.764 946.17 891.633C945.83 890.835 945.62 890.085 945.58 889.354C945.2 891.934 944.81 894.524 944.42 897.104C938.96 933.414 934.55 969.974 933.14 1006.69C932.45 1024.8 932.14 1042.93 932.95 1061.05C933.35 1070.1 934.01 1079.14 934.92 1088.16C935.37 1092.68 935.84 1097.19 936.39 1101.69L936.517 1102.74C936.676 1104.12 936.78 1105.45 936.66 1106.71C941.06 1108.88 943.59 1114.36 945.35 1118.64C946.69 1121.9 945.65 1125.07 943.49 1127.36C946.07 1129.71 948.37 1132.47 950.3 1135.63C950.69 1136.27 949.85 1136.77 949.35 1136.37C946.18 1133.85 942.77 1131.78 939.21 1130.19C937.34 1130.9 935.3 1131.09 933.42 1130.57C931.38 1130.01 929.62 1128.65 928.35 1126.93C918.24 1125.26 907.73 1127.29 898.63 1133.62C896.74 1134.94 895.03 1136.43 893.4 1138.05C893.12 1138.34 892.83 1138.69 892.54 1139.04L894.525 1139.81C895.348 1140.12 896.023 1140.36 896.28 1140.41C898.013 1140.77 899.773 1140.96 901.533 1141.11L904.17 1141.32C914.3 1142.16 924.4 1142.44 933.82 1146.68C935.8 1147.57 935.11 1150.62 933.24 1151.13C926.361 1153 919.535 1152.86 912.533 1152.36L911.03 1152.24C904.52 1151.74 897.53 1151.77 891.18 1149.97C892.7 1154.13 890.63 1159.56 884.28 1160.41C865.21 1162.95 846.02 1161.76 826.93 1160.07C807.65 1158.37 788.38 1156.76 769.05 1155.76C706.524 1152.47 643.901 1153.1 581.319 1153.99L545.953 1154.5C517.75 1154.9 489.541 1155.21 461.338 1154.99L448.137 1154.87C442.558 1154.82 436.975 1154.75 431.402 1154.58L428.06 1154.47C421.42 1154.23 412.63 1155.23 406.86 1151.3C402.1 1148.06 401.04 1142.12 403.91 1137.34C404.74 1135.95 405.88 1134.72 407.07 1133.52C409.51 1112.68 410.88 1091.72 412.28 1070.78C417.14 997.505 414.3 924.604 403.09 852.064C373.01 861.255 343.39 872.784 314.53 885.154C298.92 891.844 283.39 898.784 268.04 906.064C254.03 912.714 239.96 921.024 224.99 925.344C223.629 926.552 221.726 927.126 220.039 926.59L219.82 926.514H219.81C218.27 926.874 216.56 926.654 214.88 925.644C214.54 925.438 214.2 925.231 213.86 925.018L213.35 924.694C208.08 921.374 202.78 917.284 199.05 912.284C194.52 916.484 189.65 920.335 184.86 924.234C179.66 928.474 174.48 932.734 169.34 937.034C167.3 938.744 165.05 940.374 163.25 942.344L162.988 942.633C162.947 942.68 162.907 942.727 162.87 942.774C170.66 947.814 177.48 955.464 183.59 962.114C190.151 969.251 196.485 976.616 202.768 984.009L208.849 991.18C251.856 1041.96 295.302 1094.59 350.98 1131.91C359.78 1137.81 351.39 1152.18 342.65 1146.15C326.11 1134.76 310.46 1122.11 295.43 1108.8C269.09 1085.49 245.39 1059.34 223.2 1032.09C211.97 1018.3 201.07 1004.18 190.39 989.954L186.765 985.13C181.935 978.697 177.13 972.244 172.53 965.644L171.567 964.261C167.533 958.439 163.242 951.898 160.64 945.194C159.64 946.204 158.51 947.053 156.86 947.694C154.04 948.794 150.58 946.484 149.89 943.734C148.21 937.064 154.01 933.094 158.73 929.553C164.46 925.274 170.3 921.144 176.15 917.034L178.24 915.557C185.555 910.369 192.909 905.044 200.88 900.944C201.12 900.624 201.41 900.324 201.74 900.064C202.12 899.764 202.49 899.474 202.87 899.184C193.35 883.744 182.91 868.904 171.26 854.883C162.5 844.335 153.2 834.264 143.36 824.724L138.94 820.444C132.253 813.987 125.301 807.437 117.88 801.824L115.557 804.458C112.455 807.967 109.322 811.448 106.01 814.744C99.4899 821.224 93.0599 827.835 86.6599 834.444C76.0314 845.441 65.7628 856.776 55.5268 868.128L50.4099 873.803C39.7499 885.633 28.3299 897.244 18.6399 909.883L18.156 910.523C13.9256 916.197 10.9141 922.476 12.8799 929.684C14.7767 936.632 19.2864 942.794 23.1734 948.795L23.5599 949.394C39.4299 974.114 56.4299 998.204 74.6399 1021.26C111.11 1067.43 152.71 1111.18 202.35 1143.28C209.23 1147.73 202.8 1158.79 195.91 1154.29C166.92 1135.34 140.29 1112.59 115.79 1088.14C93.2999 1065.71 72.9199 1041.01 53.8199 1015.66C44.5099 1003.29 35.5899 990.664 27.0399 977.755C18.7499 965.224 9.15995 952.335 3.14994 938.514C0.00019114 931.244 -1.16006 923.374 1.41994 915.714C3.78601 908.674 8.46523 902.828 13.3331 897.329L13.7899 896.814C24.9799 884.244 36.3699 871.824 47.8599 859.524C59.3899 847.184 71.4499 835.284 83.7599 823.734C93.4299 814.644 103.51 806.633 114.29 799.214C113.32 798.524 112.35 797.864 111.36 797.224C108.35 795.264 107.59 791.074 110.23 788.414C117.44 781.133 125.75 774.803 133.57 768.175C140.92 761.944 148.27 755.704 155.62 749.464C170.58 736.784 185.54 724.094 200.5 711.404C227.37 688.614 254.09 665.664 280.87 642.774C292.037 633.232 303.307 623.809 314.549 614.359L334.523 597.55V597.55L344.291 589.349C349.297 585.157 354.408 581.011 360.1 577.814C373.492 570.291 389.593 567.037 404.348 563.051L405.33 562.784C421.88 558.255 438.52 553.994 455.25 550.194C472 546.394 488.82 542.934 505.71 539.803C520.89 536.984 536.43 534.564 551.91 534.204C555.75 532.744 560.57 532.234 564.35 533.794C565.91 534.444 567.54 535.394 568.99 536.594C576.56 533.934 584.03 532.664 591.1 528.164C598.16 523.675 604.41 517.774 609.67 511.274C620.54 497.814 626.23 481.914 630.05 465.303Z" fill="black"/>
<path fill-rule="evenodd" clip-rule="evenodd" d="M881.529 304.003C879.376 285.088 882.162 245.552 882.349 243.15C883.529 227.965 876.414 168.002 862.964 173.527C840.402 155.666 810.351 151.722 782.251 149.838C723.884 145.924 661.791 154.909 616.721 194.189C594.432 214.588 572.733 244.257 574.477 275.149C554.226 304.431 525.677 344.598 550.909 378.831C559.485 389.768 573.117 393.841 583.891 402.124C605.563 419.604 619.159 444.69 641.036 462.066C698.997 514.149 797.414 525.029 854.36 465.789C898.395 422.885 891.275 358.699 883.529 304.003C878.322 267.23 885.729 340.904 881.529 304.003Z" fill="white"/>
<path fill-rule="evenodd" clip-rule="evenodd" d="M704.28 69.6256C719.89 66.4756 735.919 64.5156 751.86 65.1056L753.089 65.1533C765.083 65.6327 780.273 66.6931 790.736 73.6676C791.338 73.0636 792.306 72.7536 793.184 73.1726C805.618 79.1076 819.294 83.3986 832.386 87.6626C845.418 91.9056 858.938 94.7066 872.597 95.8356C877.736 96.2606 882.134 101.81 878.88 106.787C878.106 107.973 877.352 109.171 876.601 110.372C877.857 110.241 879.113 110.106 880.369 109.979C884.502 109.563 888.631 113.974 888.386 117.998C888.233 120.529 887.96 123.03 887.556 125.501C889.13 125.468 890.695 125.704 892.207 126.343C899.863 129.576 899.33 138.695 898.757 145.633C897.963 155.261 894.362 165.459 887.676 172.665C892.668 177.85 896.202 184.042 898.31 191.396C899.839 196.766 900.69 202.486 900.27 208.076L900.136 209.749C899.617 215.815 898.584 222.532 894.22 226.896C891.98 229.146 889.22 229.966 886.589 229.706C888.18 243.686 889.2 257.746 890.16 271.756L890.61 278.452C892.752 310.832 894.361 343.422 893.94 375.856C893.549 406.166 887.56 435.586 868.97 460.196C852.039 482.606 827.73 499.126 800.23 505.406C785.41 508.796 770.28 509.036 755.28 506.876C748.009 505.826 740.69 504.216 733.789 501.676C726.15 498.856 720.66 494.706 715.52 488.486C713.089 485.536 714.259 479.256 719.1 479.846C726.421 480.733 733.105 481.803 740.124 483.969L741.129 484.286C748.12 486.526 755.36 488.196 762.669 488.906C777.64 490.356 792.839 488.896 807.18 484.356C830.53 476.956 850.64 460.466 863.53 439.746C878.83 415.186 880.56 387.306 880.339 359.066C880.102 328.077 879.094 297.071 877.449 266.114L877.169 260.956C876.299 245.026 875.459 229.086 874.72 213.146C874.49 208.146 874.14 203.106 873.509 198.116C867.74 194.736 862.57 190.076 859.2 184.326C852.43 187.126 845.31 189.146 838.759 190.756C823.585 194.488 807.831 195.394 792.386 193.057C788.22 194.778 783.971 196.291 779.657 197.593C778.491 198.11 777.325 198.618 776.16 199.116C765.759 203.566 755.209 207.336 744.23 210.096L741.533 210.768C735.755 212.192 729.479 213.595 723.33 214.036C722.32 214.426 721.23 214.756 720.039 215.046C714.44 216.406 708.629 216.836 702.89 216.356C697.299 215.886 693.259 210.236 696.339 204.946C698.589 201.086 700.86 197.236 703.15 193.396C695.18 196.716 686.95 199.476 678.65 201.816C670.27 204.176 661.77 206.166 653.259 207.996C648.709 208.966 644.14 209.826 639.6 210.796C636.35 211.486 631.36 211.846 628.709 213.986C625.78 216.336 624.95 221.816 623.839 225.196C622.379 229.586 621.009 233.996 619.759 238.456C617.27 247.356 615.23 256.386 613.65 265.506C612.07 274.636 611.009 283.856 610.419 293.106C609.83 302.346 610.089 311.646 609.14 320.846C608.629 325.726 603.39 328.236 599.52 324.826C599.066 324.426 598.608 324.021 598.155 323.612L597.48 322.996C594.169 319.996 590.959 316.816 588.31 313.236C587.83 312.576 587.37 311.886 586.94 311.186C586.87 311.186 586.81 311.166 586.74 311.116L586.005 310.563C577.918 304.543 564.406 296.695 556.52 306.696C554.007 309.881 552.72 313.938 551.653 317.852L549.779 324.856C548.567 329.429 547.426 334.027 546.759 338.706C545.249 349.186 546.009 361.266 553.22 369.666C556.1 373.026 560.07 375.426 564.499 376.056C566.97 376.396 569.41 375.976 571.86 375.666C574.35 375.356 576.749 375.856 579.24 375.616C583.2 375.226 584.93 379.966 583.45 382.946C582.65 384.546 581.709 385.926 580.64 387.096C581.499 387.836 582.32 388.636 583.11 389.476C585.45 390.226 587.549 391.836 589.12 393.966C590.39 395.686 591.049 397.556 591.16 399.526C591.299 400.016 591.419 400.516 591.53 401.026L593.675 404.507C594.147 405.271 594.617 406.026 595.089 406.766C600.549 415.366 606.61 422.646 614.14 429.506C621.39 436.106 629.259 442.016 636.07 449.096L636.872 449.936C643.222 456.627 649.915 464.727 647.43 474.456C646.79 476.956 643.299 478.756 641.02 477.066C633.69 471.626 629.999 463.006 623.78 456.406C617.379 449.606 610.289 443.496 603.87 436.716C597.799 430.316 593.009 423.066 589.4 415.086C587.959 416.676 585.86 417.806 582.95 418.246C577.95 418.996 573.289 416.066 571.11 411.736C569.709 412.356 568.28 412.916 566.839 413.356C559.259 415.676 554.49 407.246 557.35 401.016C558.879 397.676 560.789 394.776 563.16 392.336C555.749 391.316 548.209 387.486 543.339 382.706C531.12 370.696 529.44 352.646 532.19 336.596C533.65 328.086 536.169 319.476 539.44 311.486C540.009 310.096 540.62 308.696 541.289 307.316C540.919 307.306 540.539 307.146 540.299 306.836C538.089 303.816 535.4 301.346 533.759 297.966C532.249 294.866 530.57 291.726 529.379 288.496C526.93 281.886 525.73 274.426 524.93 267.436C523.28 253.126 523.919 238.906 526.11 224.686C529.839 200.466 538.847 177.288 552.118 156.95C551.395 156.57 550.703 156.112 550.058 155.57L549.739 155.292L549.221 154.824C545.434 151.397 545.761 144.974 549.221 141.503L550.314 140.407C551.697 139.032 552.891 137.943 555.126 136.447C555.456 136.226 555.793 136.018 556.134 135.824C554.964 133.662 554.558 131.134 555.373 128.345C558.213 118.629 572.193 118.973 581.054 123.21C590.857 114.461 601.727 106.866 613.509 100.716C641.57 86.0756 673.299 75.8656 704.28 69.6256ZM559.23 325.526C564.47 323.816 571.43 327.406 576.14 329.566C582.11 332.306 587.19 336.356 592.11 340.636C594.56 342.776 594.999 346.276 594.39 349.266C594.329 349.566 594.27 349.876 594.199 350.186C593.549 353.376 589.989 355.886 586.839 355.796C580.249 355.616 577.11 349.926 573.379 345.106C572.94 345.886 572.39 346.606 571.709 347.146L571.249 347.506C569.701 348.684 567.995 349.626 565.949 349.536C564.499 349.466 563.11 349.096 561.829 348.426C558.629 346.736 557.22 342.596 558.089 339.226C558.629 337.106 559.869 335.446 561.489 334.296L560.885 333.883C559.593 332.983 558.415 332.035 557.496 330.637L557.289 330.306H557.369C556.369 328.586 557.02 326.246 559.23 325.526Z" fill="black"/>
<path fill-rule="evenodd" clip-rule="evenodd" d="M792.042 410.159C784.675 412.293 776.768 412.484 769.259 410.28C762.448 408.281 755.455 403.883 750.442 398.062C745.989 392.892 743.105 386.608 743.219 379.901C743.232 379.135 743.506 378.496 743.927 378C744.38 377.465 745.014 377.098 745.693 376.939C746.391 376.775 747.128 376.833 747.757 377.119C748.326 377.377 748.813 377.816 749.118 378.457C749.888 379.469 750.655 380.466 751.426 381.436C757.62 389.084 763.618 394.8 772.932 396.85C777.985 397.962 783.032 397.469 787.663 395.772C792.62 393.955 797.102 390.76 800.613 386.672C802.2 384.824 804.073 384.07 805.905 384.057C807.982 384.043 810.034 385.008 811.579 386.55C813.099 388.065 814.116 390.125 814.209 392.279C814.29 394.17 813.673 396.145 812.032 397.907C806.626 403.712 799.621 407.964 792.042 410.159ZM791.814 314.367C799.366 318.958 810.872 329.661 802.748 341.04C793.186 351.073 779.418 339.569 772.634 334.366C766.343 330.334 759.275 340.705 765.112 345.413C814.136 381.708 834.031 315.568 795.634 308.971C791.406 308.244 789.836 312.948 791.814 314.367ZM721.175 294.17C718.748 292.618 715.893 292.085 712.729 293.525C710.256 294.649 705.919 298.398 702.901 303.326C700.836 306.697 699.372 310.652 699.677 314.771C699.748 315.728 699.394 316.433 698.837 316.955C698.396 317.367 697.76 317.67 697.013 317.764C696.379 317.845 695.669 317.772 695.091 317.592C693.993 317.249 693.412 316.537 693.193 315.955C691.08 310.343 691.99 304.08 694.358 298.43C697.555 290.805 703.359 284.418 707.162 282.359C713.67 278.834 721.347 278.672 727.864 282.263C733.411 285.319 736.88 290.254 740.33 295.284C741.063 296.353 741.791 297.414 742.544 298.457C744.051 300.547 744.201 302.619 743.617 304.396C742.971 306.364 741.321 308.026 739.259 308.895C737.353 309.699 735.141 309.812 733.183 308.986C731.529 308.289 730.012 306.929 729.051 304.622C727.434 300.737 724.739 296.45 721.175 294.17V294.17ZM844.441 302.815C842.779 303.681 841.478 303.942 839.634 303.389C838.615 303.083 837.607 302.496 836.818 301.707C836.036 300.925 835.472 299.953 835.252 298.874C834.713 296.212 833.256 293.72 831.181 292.095C829.406 290.707 827.167 289.971 824.683 290.386C822.002 290.833 819.449 292.552 817.69 294.579C817.102 295.257 816.641 296.027 816.178 296.792C815.311 298.223 814.469 299.553 813.274 300.604C812.821 301.003 812.138 301.28 811.477 301.28C811.208 301.28 810.935 301.237 810.676 301.156C808.008 298.478 807.495 296.447 807.581 294.432C807.671 292.319 808.504 290.18 809.85 288.184C813.007 283.502 819.003 279.663 823.048 278.794C828.589 277.603 834.091 279.032 838.503 282.127C843.042 285.311 846.405 290.254 847.454 295.825C847.706 297.167 847.599 298.616 847.088 299.871C846.589 301.098 845.719 302.149 844.441 302.815ZM733.394 244.253C730.069 247.492 726.134 247.994 722.153 248.441C719.941 248.691 718.175 248.893 716.437 249.285C711.661 250.363 706.939 251.987 702.632 254.325C698.129 256.77 693.222 259.719 689.692 263.496C688.853 264.395 688.062 265.338 687.269 266.283C686.547 267.145 685.851 267.974 685.117 268.774C684.274 269.693 683.474 270.657 682.679 271.617C682.187 272.428 682.09 272.627 681.99 272.835C681.841 273.146 681.668 273.495 681.47 273.87C681.198 274.383 680.881 274.944 680.548 275.453C679.994 276.383 679.697 276.639 679.44 276.754C679.014 276.943 678.61 277.037 678.218 276.986C677.851 276.939 677.504 276.762 677.162 276.473C675.455 275.031 674.952 272.664 675.004 270.152C675.082 266.339 676.488 262.117 677.785 259.522C680.799 253.493 684.979 247.224 690.006 242.724C695.742 237.587 702.018 233.698 709.226 231.019C713.705 229.353 718.891 227.823 723.771 228.017C727.284 228.156 730.637 229.2 733.407 231.807C735.107 233.408 735.923 235.685 735.923 237.96C735.923 240.281 735.076 242.615 733.394 244.253ZM851.203 273.918C850.991 274.264 850.699 274.503 850.373 274.647C850.032 274.797 849.651 274.84 849.285 274.779C848.921 274.717 848.575 274.552 848.3 274.3C848.037 274.058 847.837 273.738 847.747 273.345C845.54 263.649 841.253 256.436 832.104 251.784C827.604 249.496 822.429 248.042 817.53 246.882C816.106 246.546 814.602 246.327 813.087 246.106C808.339 245.413 803.557 244.619 800.462 240.781C798.597 238.469 797.814 235.513 798.256 232.809C798.673 230.263 800.161 227.929 802.865 226.53C809.597 223.049 817.964 226.465 824.763 229.375C825.267 229.591 825.762 229.802 826.246 230.007C832.895 232.813 838.959 236.518 843.944 241.815C847.899 246.018 851.563 252.232 853.039 258.623C854.267 263.941 853.978 269.369 851.203 273.918Z" fill="black"/>
<path fill-rule="evenodd" clip-rule="evenodd" d="M798.945 371C810.659 371.831 821.739 379.099 831.816 384.717C841.514 390.511 848.692 399.095 854.426 408.666L854.798 409.292C855.134 409.791 854.534 410.352 854.042 410.161L853.965 410.125C844.448 405.35 834.406 401.48 825.062 396.271C815.938 390.63 804.734 388.702 795.541 383.571C790.287 379.676 791.864 371.301 798.945 371ZM768.476 376.683C768.903 379.355 767.824 383.596 764.316 384.835C758.153 387.009 752.54 388.181 746.35 389.878L738.325 392.125C722.91 396.467 707.264 401.128 693.617 407.968L693.189 407.78C683.276 401.578 738.04 375.704 756.949 371.582C760.423 370.824 767.831 372.651 768.476 376.683Z" fill="black"/>
</svg>
