<svg width="842" height="1199" viewBox="0 0 842 1199" fill="none" xmlns="http://www.w3.org/2000/svg">
<path fill-rule="evenodd" clip-rule="evenodd" d="M659.933 682.977C651.249 679.881 642.879 676.305 635.253 671.045C613.27 654.682 598.936 630.057 585.392 606.726C566.314 572.793 552.723 536.635 543.328 498.915C539.291 482.709 537.92 463.919 528.748 449.551C507.956 419.466 446.987 423.364 414.612 428.645C392.932 432.481 388.451 456.743 383.527 474.696C379.427 489.613 376.743 504.699 374.49 519.987C369.13 523.511 363.079 526.373 357.311 528.866C294.452 548.141 283.404 583.875 259.395 639.073C218.844 719.302 108.809 750.715 92.1883 845.664C81.4793 908.349 111.932 967.322 143.329 1019.43C172.569 1076.36 213.39 1103.67 278.399 1090.23C339.374 1076.55 397.974 1053.67 457.876 1035.99C486.889 1028.85 515.856 1010.3 546.375 1016.77C609.26 1030.89 673.871 1037.53 738.317 1035.7C828.801 1039.36 828.787 952.513 819.5 885.26C812.995 780.599 760.205 713.395 659.933 682.977V682.977Z" fill="white"/>
<path fill-rule="evenodd" clip-rule="evenodd" d="M665.983 834.422C673.544 839.422 679.903 847.003 685.008 854.981C663.696 852.764 642.421 850.208 621.193 847.298C623.972 845.522 626.777 843.785 629.646 842.145C640.113 836.247 654.295 826.694 665.983 834.422ZM311.898 897.42C307.993 895.891 306.482 889.937 304.96 886.524C300.188 875.821 295.833 864.936 291.302 854.129C308.506 849.225 325.236 843.784 343.058 841.17C362.221 838.362 381.667 837.682 401.007 838.313C440.181 839.591 478.991 845.993 517.505 852.858C555.974 859.715 594.441 866.303 633.179 871.473C671.132 876.538 709.205 880.245 747.349 883.499C754.76 884.132 767.117 886.797 773.077 880.965C777.796 876.346 777.949 867.827 772.044 864.072C768.366 861.731 763.037 861.697 758.835 861.157C753.543 860.476 748.23 860.023 742.906 859.67C740.737 859.527 738.568 859.395 736.398 859.263C753.815 852.696 772.006 849.115 790.888 850.113C791.956 856.6 796.767 863.274 799.4 868.624C803.998 877.964 807.582 887.417 809.935 897.573C814.853 918.801 815.067 940.833 813.678 962.484C812.402 980.536 809.661 1000.5 795.501 1013.29C784.78 1022.97 769.654 1026.55 755.621 1027.68C739.311 1028.99 722.749 1027.59 706.576 1025.4C683.892 1022.34 661.102 1018.28 638.864 1012.85C595.793 1002.32 554.509 985.566 516.42 962.854C497.845 951.779 480.121 939.319 461.291 928.665C442.104 917.807 421.688 909.384 400.25 904.154C376.259 898.301 351.179 895.803 326.521 897.247C322.242 897.497 316.06 899.049 311.898 897.42ZM284.096 886.552C286.617 894.733 288.546 904.074 293.927 910.948C299.257 917.76 307.298 920.164 315.628 920.77C325.672 921.499 335.834 921.032 345.9 921.406C366.545 922.173 386.907 925.526 406.643 931.677C425.035 937.41 442.108 946.352 458.554 956.272C473.762 965.446 488.524 975.295 503.737 984.441C499.688 986.297 495.685 988.305 491.66 990.053C483.218 993.719 474.724 997.256 466.192 1000.7C449.367 1007.5 432.471 1014.14 415.402 1020.3C380.984 1032.73 346 1043.59 310.595 1052.84C293.709 1057.25 276.583 1062.41 259.04 1063.14C243.484 1063.79 229.075 1059.39 216.529 1050.14C190.507 1030.96 169.804 1003.27 153.068 975.958C143.125 959.731 134.448 942.681 127.271 925.052C123.641 916.137 120.349 907.085 117.386 897.927C115.996 893.627 114.678 889.303 113.43 884.959C112.881 883.049 112.355 881.133 111.834 879.215C138.443 871.095 165.368 863.765 192.925 859.696C207.638 857.523 222.547 856.423 237.421 856.583C244.804 856.662 252.183 857.061 259.527 857.823C263.48 858.233 267.417 858.761 271.337 859.415C272.957 859.684 274.622 860.082 276.292 860.375C278.843 869.116 281.415 877.85 284.096 886.552ZM834.138 851.798C835.572 848.897 836.177 846.043 836.691 842.885C837.083 840.476 838.123 837.085 837.212 833.957C836.192 830.454 833.413 827.321 831.418 824.333C829.215 821.031 827.014 817.727 824.816 814.421C820.419 807.81 816.032 801.193 811.652 794.571C793.765 767.53 776 740.411 758.207 713.309C742.417 689.258 726.893 664.991 710.622 641.263C696.709 620.973 681.544 601.018 662.5 585.238C638.421 565.286 609.749 555.887 579.8 548.553C576.529 545.158 572.16 543.304 567.49 543.68C560.892 536.197 555.648 530.97 553.271 521.454C552.132 516.896 552.489 504.089 548.05 501.392C542.777 498.188 540.023 502.428 538.569 507.208C533.704 523.198 539.288 544.696 552.138 560.713C546.724 579.424 539.546 606.016 526.741 621.006C513.029 637.057 494.066 642.053 473.606 642.382C434.588 643.01 395.611 628.509 365.85 603.377C356.804 595.739 348.403 587.208 340.802 578.135C335.101 571.328 328.357 560.823 323.897 552.883C323.897 549.789 320.243 546.553 357.437 544.053C394.63 541.553 397.451 490.626 398.278 483.695C398.95 478.067 401.808 469.331 397.842 464.742C396.159 462.793 392.705 462.479 390.571 463.803C386.547 466.302 385.225 472.692 383.96 477.031C382.188 483.11 376.395 520.837 365.418 525.205C360.279 527.25 354.385 527.288 348.949 527.666C342.236 528.135 335.509 528.478 328.823 529.259C326.357 529.547 323.667 530.345 321.234 530.368C319.651 530.383 318.018 529.614 316.488 529.074C311.324 527.249 306.164 528.618 300.844 529.333C253.808 535.654 205.377 550.081 165.257 576.04C129.895 598.92 104.982 631.825 88.5427 670.297C71.7697 709.559 62.1557 752.016 54.0987 793.812C51.3997 807.816 49.0427 821.885 47.0177 836.002C45.0607 849.643 42.6127 863.589 42.0267 877.368C41.7947 882.82 43.0977 887.885 45.1027 892.865C47.3607 898.47 52.6977 900.68 57.8167 903.297C69.0537 909.045 80.9077 913.503 93.1207 916.66C100.582 930.233 106.861 944.336 111.907 958.973C110.035 962.682 109.996 968.221 109.636 971.826C108.743 980.803 108.361 989.827 108.281 998.845C108.12 1016.92 109.207 1034.98 110.059 1053.02C110.923 1071.33 113.795 1143.55 114.263 1152.37C114.627 1159.22 114.137 1168.8 117.746 1174.88C123.292 1184.23 136.98 1183.92 143.32 1176.34C300.844 1210.2 596.944 1200 716.199 1182.96C731.715 1180.75 726.843 1183.2 730.789 1179.28C733.75 1176.34 736.27 1171.3 737.089 1167.25C738.183 1161.84 736.417 1156.95 733.321 1152.57C730.066 1147.97 729.473 1140.52 728.264 1135.05C725.405 1122.12 723.984 1065.33 722.648 1059.04C722.232 1057.07 721.829 1055 721.343 1052.93C743.218 1055 766.011 1055 786.822 1047.68C798.623 1043.53 809.629 1037.02 818.101 1027.71C828.359 1016.45 834.066 1002.26 837.001 987.457C840.788 968.366 841.592 948.591 840.848 929.184C839.814 906.248 836.01 882.989 826.568 861.93C829.675 859.045 832.279 855.564 834.138 851.798Z" fill="black"/>
<path fill-rule="evenodd" clip-rule="evenodd" d="M633.529 304.003C631.376 285.088 634.162 245.552 634.349 243.15C635.529 227.965 628.414 168.002 614.964 173.527C592.402 155.666 562.351 151.722 534.251 149.838C475.884 145.924 413.791 154.909 368.721 194.189C346.432 214.588 324.733 244.257 326.477 275.149C306.226 304.431 277.677 344.598 302.909 378.831C311.485 389.768 325.117 393.841 335.891 402.124C357.563 419.604 371.159 444.69 393.036 462.066C450.997 514.149 549.414 525.029 606.36 465.789C650.395 422.885 643.275 358.699 635.529 304.003C630.322 267.23 637.729 340.904 633.529 304.003Z" fill="white"/>
<path fill-rule="evenodd" clip-rule="evenodd" d="M456.28 69.6251C471.89 66.4751 487.919 64.5151 503.86 65.1051L505.089 65.1528C517.083 65.6322 532.273 66.6926 542.736 73.6671C543.338 73.0631 544.306 72.7531 545.184 73.1721C557.618 79.1071 571.294 83.3981 584.386 87.6621C597.418 91.9051 610.938 94.7061 624.597 95.8351C629.736 96.2601 634.134 101.809 630.88 106.786C630.106 107.972 629.352 109.17 628.601 110.371C629.857 110.24 631.113 110.105 632.369 109.978C636.502 109.562 640.631 113.973 640.386 117.997C640.233 120.528 639.96 123.029 639.556 125.5C641.13 125.467 642.695 125.703 644.207 126.342C651.863 129.575 651.33 138.694 650.757 145.632C649.963 155.26 646.362 165.458 639.676 172.664C644.668 177.849 648.202 184.041 650.31 191.395C651.839 196.765 652.69 202.485 652.27 208.075L652.136 209.749C651.617 215.815 650.584 222.531 646.22 226.895C643.98 229.145 641.22 229.965 638.589 229.705C640.18 243.685 641.2 257.745 642.16 271.755L642.61 278.451C644.752 310.831 646.361 343.422 645.94 375.855C645.549 406.165 639.56 435.585 620.97 460.195C604.039 482.605 579.73 499.125 552.23 505.405C537.41 508.795 522.28 509.035 507.28 506.875C500.009 505.825 492.69 504.215 485.789 501.675C478.15 498.855 472.66 494.705 467.52 488.485C465.089 485.535 466.259 479.255 471.1 479.845C478.421 480.733 485.105 481.803 492.124 483.968L493.129 484.285C500.12 486.525 507.36 488.195 514.669 488.905C529.64 490.355 544.839 488.895 559.18 484.355C582.53 476.955 602.64 460.465 615.53 439.745C630.83 415.185 632.56 387.305 632.339 359.065C632.102 328.077 631.094 297.07 629.449 266.114L629.169 260.955C628.299 245.025 627.459 229.085 626.72 213.145C626.49 208.145 626.14 203.105 625.509 198.115C619.74 194.735 614.57 190.075 611.2 184.325C604.43 187.125 597.31 189.145 590.759 190.755C575.585 194.487 559.831 195.393 544.386 193.056C540.22 194.777 535.971 196.29 531.657 197.592C530.491 198.109 529.325 198.617 528.16 199.115C517.759 203.565 507.209 207.335 496.23 210.095L493.533 210.768C487.755 212.192 481.479 213.595 475.33 214.035C474.32 214.425 473.23 214.755 472.039 215.045C466.44 216.405 460.629 216.835 454.89 216.355C449.299 215.885 445.259 210.235 448.339 204.945C450.589 201.085 452.86 197.235 455.15 193.395C447.18 196.715 438.95 199.475 430.65 201.815C422.27 204.175 413.77 206.165 405.259 207.995C400.709 208.965 396.14 209.825 391.6 210.795C388.35 211.485 383.36 211.845 380.709 213.985C377.78 216.335 376.95 221.815 375.839 225.195C374.379 229.585 373.009 233.995 371.759 238.455C369.27 247.355 367.23 256.385 365.65 265.505C364.07 274.635 363.009 283.855 362.419 293.105C361.83 302.345 362.089 311.645 361.14 320.845C360.629 325.725 355.39 328.235 351.52 324.825C351.066 324.425 350.608 324.021 350.155 323.612L349.48 322.995C346.169 319.995 342.959 316.815 340.31 313.235C339.83 312.575 339.37 311.885 338.94 311.185C338.87 311.185 338.81 311.165 338.74 311.115L338.005 310.562C329.918 304.543 316.406 296.694 308.52 306.695C306.007 309.881 304.72 313.938 303.653 317.851L301.779 324.856C300.567 329.428 299.426 334.026 298.759 338.705C297.249 349.185 298.009 361.265 305.22 369.665C308.1 373.025 312.07 375.425 316.499 376.055C318.97 376.395 321.41 375.975 323.86 375.665C326.35 375.355 328.749 375.855 331.24 375.615C335.2 375.225 336.93 379.965 335.45 382.945C334.65 384.545 333.709 385.925 332.64 387.095C333.499 387.835 334.32 388.635 335.11 389.475C337.45 390.225 339.549 391.835 341.12 393.965C342.39 395.685 343.049 397.555 343.16 399.525C343.299 400.015 343.419 400.515 343.53 401.025L345.675 404.507C346.147 405.271 346.617 406.025 347.089 406.765C352.549 415.365 358.61 422.645 366.14 429.505C373.39 436.105 381.259 442.015 388.07 449.095L388.872 449.936C395.222 456.627 401.915 464.726 399.43 474.455C398.79 476.955 395.299 478.755 393.02 477.065C385.69 471.625 381.999 463.005 375.78 456.405C369.379 449.605 362.289 443.495 355.87 436.715C349.799 430.315 345.009 423.065 341.4 415.085C339.959 416.675 337.86 417.805 334.95 418.245C329.95 418.995 325.289 416.065 323.11 411.735C321.709 412.355 320.28 412.915 318.839 413.355C311.259 415.675 306.49 407.245 309.35 401.015C310.879 397.675 312.789 394.775 315.16 392.335C307.749 391.315 300.209 387.485 295.339 382.705C283.12 370.695 281.44 352.645 284.19 336.595C285.65 328.085 288.169 319.475 291.44 311.485C292.009 310.095 292.62 308.695 293.289 307.315C292.919 307.305 292.539 307.145 292.299 306.835C290.089 303.815 287.4 301.345 285.759 297.965C284.249 294.865 282.57 291.725 281.379 288.495C278.93 281.885 277.73 274.425 276.93 267.435C275.28 253.125 275.919 238.905 278.11 224.685C281.839 200.465 290.847 177.287 304.118 156.949C303.395 156.569 302.703 156.111 302.058 155.569L301.739 155.291L301.221 154.823C297.434 151.396 297.761 144.973 301.221 141.502L302.314 140.407C303.697 139.032 304.891 137.943 307.126 136.446C307.456 136.225 307.793 136.017 308.134 135.823C306.964 133.661 306.558 131.133 307.373 128.344C310.213 118.628 324.193 118.972 333.054 123.209C342.857 114.46 353.727 106.865 365.509 100.715C393.57 86.0751 425.299 75.8651 456.28 69.6251ZM311.23 325.525C316.47 323.815 323.43 327.405 328.14 329.565C334.11 332.305 339.19 336.355 344.11 340.635C346.56 342.775 346.999 346.275 346.39 349.265C346.329 349.565 346.27 349.875 346.199 350.185C345.549 353.375 341.989 355.885 338.839 355.795C332.249 355.615 329.11 349.925 325.379 345.105C324.94 345.885 324.39 346.605 323.709 347.145L323.249 347.505C321.701 348.684 319.995 349.626 317.949 349.535C316.499 349.465 315.11 349.095 313.829 348.425C310.629 346.735 309.22 342.595 310.089 339.225C310.629 337.105 311.869 335.445 313.489 334.295L312.885 333.882C311.593 332.983 310.415 332.035 309.496 330.636L309.289 330.305H309.369C308.369 328.585 309.02 326.245 311.23 325.525Z" fill="black"/>
<path fill-rule="evenodd" clip-rule="evenodd" d="M550.059 396.111C556.379 394.638 561.343 399.99 560.101 406.153C558.786 412.677 551.771 414.913 545.889 414.708C539.22 414.477 532.556 413.1 525.854 412.823C518.969 412.539 512.058 412.487 505.169 412.673C498.797 412.845 492.257 413.968 485.935 412.96C483.473 412.567 483.706 409.317 485.308 408.162C490.064 404.732 496.228 403.334 501.834 401.895C507.55 400.427 513.393 399.303 519.255 398.617C525.198 397.922 531.19 397.575 537.172 397.507C539.895 397.476 543.234 398.081 545.889 397.591C547.242 397.34 548.62 396.447 550.059 396.111ZM531.814 311.367C539.366 315.957 550.872 326.66 542.748 338.04C533.186 348.073 519.418 336.569 512.634 331.366C506.343 327.334 499.275 337.705 505.112 342.413C554.136 378.708 574.03 312.567 535.634 305.97C531.406 305.243 529.836 309.947 531.814 311.367ZM477.059 277.092C487.16 275.412 488.927 289.812 478.916 290.818C476.815 291.029 474.726 291.213 472.641 291.396C472.844 292.048 472.979 292.719 473.053 293.409C473.148 293.995 473.219 294.617 473.282 295.328C473.599 298.871 471.087 302.555 468.152 304.273C465.102 306.058 460.724 306.296 457.695 304.273C456.133 303.229 454.573 302.052 453.712 300.326C452.557 298.553 451.927 296.501 451.863 294.395C447.258 295.591 442.569 297.208 437.918 298.065C438.089 298.233 438.257 298.412 438.42 298.609C438.544 298.76 438.374 299.043 438.193 298.904L435.86 298.387V298.387C435.142 298.481 434.424 298.558 433.708 298.603L433.725 298.54V298.54C432.528 298.519 431.548 297.104 432.619 295.972C436.728 291.628 443.14 288.742 448.986 286.328L454.618 284.019C461.82 281.092 469.423 278.362 477.059 277.092ZM558.319 281.546C564.935 280.791 571.486 281.091 578.113 281.495C589.266 282.174 584.588 298.438 575.636 294.683C575.728 295.278 575.752 295.874 575.683 296.429C575.333 299.288 574.401 301.704 571.777 303.24C569.34 304.666 566.251 304.662 563.814 303.24C561.204 301.718 560.027 299.573 559.361 296.786C558.845 294.625 559.052 292.817 559.35 290.677C559.449 289.968 559.758 289.307 560.186 288.713C559.562 288.557 558.937 288.406 558.311 288.265C552.745 286.999 547.254 287.253 541.704 286.451C541.112 286.365 541.018 285.409 541.536 285.166C546.523 282.823 552.863 282.168 558.319 281.546ZM476.039 231.315C479.857 229.858 484.653 232.281 486.602 235.614C488.814 239.396 487.869 243.762 485.139 246.949C480.952 251.838 472.976 254.85 467.098 257.64L466.626 257.865C460.59 260.777 454.389 263.451 448.104 265.781C441.923 268.074 435.493 269.87 429.085 271.412C425.706 272.225 422.255 272.897 418.802 273.321C416.076 273.655 413.974 272.907 411.366 272.907C410.985 272.908 410.866 272.403 411.177 272.209C413.614 270.677 415.423 268.66 418.081 267.241C420.849 265.764 423.627 264.312 426.415 262.874C432.052 259.968 437.48 256.734 442.918 253.479C448.65 250.048 454.252 246.435 459.7 242.567C465.031 238.782 469.944 233.64 476.039 231.315ZM544.076 228.204C548.844 227.279 553.566 229.535 554.977 234.394C556.33 239.049 554.915 240.047 558.524 243.378C561.401 246.032 564.503 248.402 567.633 250.735L572.241 254.16C580.586 260.337 589.001 266.178 598.596 270.347C599.407 270.699 598.938 271.904 598.169 271.92C582.915 272.214 568.288 270.149 554.519 263.32C548.087 260.13 541.625 256.095 537.898 249.727C533.581 242.353 533.707 230.214 544.076 228.204Z" fill="black"/>
<path fill-rule="evenodd" clip-rule="evenodd" d="M550.945 371C562.659 371.831 573.739 379.099 583.816 384.717C593.514 390.511 600.692 399.095 606.426 408.666L606.798 409.292C607.134 409.791 606.534 410.352 606.042 410.161L605.965 410.125C596.448 405.35 586.406 401.48 577.062 396.271C567.938 390.63 556.734 388.702 547.541 383.571C542.287 379.676 543.864 371.301 550.945 371ZM520.476 376.683C520.903 379.355 519.824 383.596 516.316 384.835C510.153 387.009 504.54 388.181 498.35 389.878L490.325 392.125C474.91 396.467 459.264 401.128 445.617 407.968L445.189 407.78C435.276 401.578 490.04 375.704 508.949 371.582C512.423 370.824 519.831 372.651 520.476 376.683Z" fill="black"/>
</svg>
